<svg width="653" height="576" viewBox="0 0 653 576" fill="none" xmlns="http://www.w3.org/2000/svg">
<g clip-path="url(#clip0_156_4273)">
<path d="M325.9 330.87C312.853 330.883 300.032 327.458 288.73 320.94L209.81 275.38C198.523 268.84 189.149 259.452 182.627 248.154C176.104 236.857 172.66 224.045 172.64 211V119.87C172.66 106.825 176.104 94.0132 182.627 82.7156C189.149 71.4181 198.523 62.0301 209.81 55.49L288.73 9.93001C300.038 3.42385 312.855 -0.000366211 325.9 -0.000366211C338.946 -0.000366211 351.763 3.42385 363.07 9.93001L442 55.49C453.286 62.0317 462.659 71.4199 469.181 82.7171C475.704 94.0144 479.148 106.825 479.17 119.87V211C479.148 224.045 475.704 236.856 469.181 248.153C462.659 259.45 453.286 268.838 442 275.38L363.07 320.94C351.766 327.454 338.947 330.879 325.9 330.87ZM325.9 42.5C320.319 42.4983 314.836 43.9639 310 46.75L231.06 92.31C226.23 95.1116 222.219 99.1308 219.427 103.967C216.635 108.803 215.161 114.286 215.15 119.87V211C215.161 216.584 216.635 222.067 219.427 226.903C222.219 231.739 226.23 235.758 231.06 238.56L310 284.12C314.84 286.906 320.326 288.372 325.91 288.372C331.494 288.372 336.981 286.906 341.82 284.12L420.74 238.56C425.564 235.752 429.569 231.731 432.358 226.896C435.147 222.062 436.624 216.581 436.64 211V119.87C436.63 114.286 435.155 108.803 432.363 103.967C429.571 99.1308 425.56 95.1116 420.73 92.31L341.81 46.75C336.971 43.9635 331.484 42.4979 325.9 42.5Z" fill="#1D1D1B"/>
<path d="M299.89 144.1L325.9 101.08L351.91 144.1L394.92 170.1L351.91 196.11L325.9 239.13L299.89 196.11L256.88 170.1L299.89 144.1Z" fill="#1D1D1B"/>
<path d="M261.58 512.65V455.36C261.601 438.498 268.308 422.332 280.231 410.408C292.153 398.484 308.318 391.774 325.18 391.75V417.65C315.183 417.663 305.599 421.64 298.53 428.71C291.461 435.779 287.483 445.363 287.47 455.36V486.76C287.47 493.626 284.742 500.212 279.887 505.067C275.032 509.922 268.447 512.65 261.58 512.65Z" fill="#1D1D1B"/>
<path d="M401.79 512.73C384.927 512.714 368.759 506.008 356.835 494.084C344.912 482.161 338.206 465.993 338.19 449.13V391.83C345.056 391.83 351.642 394.558 356.497 399.413C361.352 404.268 364.08 410.854 364.08 417.72V449.13C364.093 459.126 368.071 468.709 375.14 475.777C382.21 482.844 391.794 486.819 401.79 486.83V512.73Z" fill="#1D1D1B"/>
<path d="M59.28 392.16C26.32 392.49 0 419.84 0 452.78V575.35C6.86646 575.35 13.4517 572.622 18.307 567.767C23.1623 562.912 25.89 556.326 25.89 549.46V500.39C25.9001 500.446 25.9001 500.504 25.89 500.56C26.5931 504.245 28.5686 507.565 31.4712 509.941C34.3738 512.318 38.019 513.598 41.77 513.56H59.86C67.7218 513.561 75.5068 512.014 82.7705 509.006C90.0342 505.999 96.6343 501.59 102.194 496.031C107.753 490.472 112.164 483.873 115.172 476.61C118.181 469.347 119.73 461.562 119.73 453.7V452C119.723 444.129 118.166 436.336 115.147 429.066C112.128 421.797 107.706 415.194 102.134 409.634C96.562 404.074 89.9492 399.667 82.6734 396.663C75.3976 393.66 67.6013 392.119 59.73 392.13L59.28 392.16ZM93.84 453.7C93.84 458.165 92.9606 462.586 91.2519 466.711C89.5432 470.836 87.0388 474.584 83.8816 477.742C80.7244 480.899 76.9763 483.403 72.8512 485.112C68.7262 486.821 64.3049 487.7 59.84 487.7H25.84V452C25.84 442.983 29.4221 434.335 35.7984 427.958C42.1746 421.582 50.8226 418 59.84 418C68.8574 418 77.5054 421.582 83.8816 427.958C90.2579 434.335 93.84 442.983 93.84 452V453.7Z" fill="#1D1D1B"/>
<path d="M532.71 452V453.67C532.71 461.532 534.259 469.317 537.267 476.58C540.276 483.843 544.686 490.442 550.246 496.001C555.806 501.56 562.406 505.969 569.669 508.976C576.933 511.984 584.718 513.531 592.58 513.53H610.67C614.416 513.561 618.054 512.277 620.95 509.902C623.847 507.526 625.818 504.21 626.52 500.53V549.43C626.523 556.297 629.253 562.883 634.109 567.738C638.966 572.593 645.553 575.32 652.42 575.32V452.78C652.42 419.78 626.1 392.48 593.14 392.16C577.246 392.029 561.951 398.217 550.619 409.362C539.287 420.507 532.845 435.696 532.71 451.59V452ZM558.6 452C558.937 443.215 562.664 434.902 568.999 428.805C575.333 422.709 583.783 419.304 592.575 419.304C601.367 419.304 609.816 422.709 616.151 428.805C622.486 434.902 626.213 443.215 626.55 452V487.63H592.55C583.537 487.614 574.899 484.027 568.526 477.654C562.153 471.281 558.566 462.642 558.55 453.63L558.6 452Z" fill="#1D1D1B"/>
<path d="M189.65 392.16C156.65 392.48 130.38 419.82 130.38 452.78V453.68C130.38 469.556 136.687 484.781 147.912 496.007C159.138 507.233 174.364 513.54 190.24 513.54H205.87C210.008 513.574 214.037 512.21 217.303 509.669C220.57 507.128 222.884 503.559 223.87 499.54C223.96 499.19 224.02 498.84 224.08 498.48V513.48L250.08 513.41V452C250.073 444.129 248.516 436.337 245.497 429.068C242.477 421.799 238.055 415.197 232.483 409.638C226.911 404.079 220.298 399.672 213.023 396.67C205.747 393.667 197.951 392.128 190.08 392.14L189.65 392.16ZM224.21 487.66H190.21C181.193 487.66 172.544 484.078 166.168 477.702C159.792 471.325 156.21 462.677 156.21 453.66V452C156.017 447.419 156.753 442.846 158.374 438.557C159.994 434.268 162.465 430.35 165.639 427.041C168.812 423.731 172.622 421.098 176.839 419.299C181.057 417.499 185.595 416.572 190.18 416.572C194.765 416.572 199.303 417.499 203.52 419.299C207.738 421.098 211.548 423.731 214.721 427.041C217.895 430.35 220.366 434.268 221.986 438.557C223.606 442.846 224.342 447.419 224.15 452L224.21 487.66Z" fill="#1D1D1B"/>
<path d="M461.4 392.16C428.4 392.48 402.13 419.82 402.13 452.78V453.68C402.13 461.542 403.679 469.327 406.687 476.59C409.696 483.853 414.106 490.452 419.666 496.011C425.226 501.57 431.826 505.979 439.089 508.986C446.353 511.994 454.138 513.541 462 513.54H477.63C481.776 513.583 485.816 512.224 489.092 509.682C492.369 507.141 494.69 503.567 495.68 499.54C495.76 499.19 495.83 498.84 495.88 498.48V513.48L521.88 513.41V452C521.872 444.129 520.314 436.338 517.294 429.07C514.274 421.801 509.852 415.199 504.28 409.641C498.708 404.082 492.096 399.675 484.821 396.672C477.546 393.67 469.75 392.129 461.88 392.14L461.4 392.16ZM496 487.66H462C452.983 487.66 444.334 484.078 437.958 477.702C431.582 471.325 428 462.677 428 453.66V452C428 442.983 431.582 434.335 437.958 427.958C444.334 421.582 452.983 418 462 418C471.017 418 479.665 421.582 486.042 427.958C492.418 434.335 496 442.983 496 452V487.66Z" fill="#1D1D1B"/>
<path d="M69.75 575.42V540H82.63V575.45L69.75 575.42ZM75.66 527.52C76.6489 527.52 77.6156 527.813 78.4379 528.363C79.2601 528.912 79.901 529.693 80.2794 530.607C80.6578 531.52 80.7569 532.526 80.5639 533.495C80.371 534.465 79.8948 535.356 79.1955 536.056C78.4963 536.755 77.6054 537.231 76.6355 537.424C75.6655 537.617 74.6602 537.518 73.7466 537.139C72.833 536.761 72.0521 536.12 71.5027 535.298C70.9532 534.476 70.66 533.509 70.66 532.52C70.6454 531.886 70.7559 531.255 70.9852 530.663C71.2146 530.071 71.5582 529.531 71.9965 529.072C72.4348 528.613 72.9593 528.245 73.5398 527.989C74.1204 527.733 74.7457 527.594 75.38 527.58L75.66 527.52Z" fill="#1D1D1B"/>
<path d="M132.27 575.42L138 540H151.23L155.38 554.51C155.762 555.85 156.039 557.217 156.21 558.6H156.53C156.574 557.212 156.806 555.836 157.22 554.51L161.38 540H174.51L180.32 575.45H167.87L166.27 559.55C166.138 558.388 166.072 557.219 166.07 556.05H165.85C165.69 556.95 165.37 558.33 165.16 559.05L159.9 575.48H152.36L147.62 559.96C147.221 558.702 146.989 557.398 146.93 556.08H146.56C146.56 556.77 146.56 558.15 146.51 558.84L144.75 575.45L132.27 575.42Z" fill="#1D1D1B"/>
<path d="M230.11 540H263.11L249.66 561.89C249.087 562.828 248.417 563.703 247.66 564.5L247.76 564.71L250.21 564.5H261.47V575.45H227L240.12 554.24C240.943 552.863 241.908 551.576 243 550.4L242.9 550.18C242.081 550.48 241.221 550.659 240.35 550.71H230.15L230.11 540Z" fill="#1D1D1B"/>
<path d="M322.32 571L321.37 575.41H307.75L320 540H334.24L346.89 575.45H333.26L332.09 571H322.32ZM327.52 551.82H327C326.959 553.171 326.765 554.513 326.42 555.82L324.67 562.63H329.82L328.16 555.82C327.91 554.49 327.68 553.16 327.52 551.83V551.82Z" fill="#1D1D1B"/>
<path d="M394.45 575.42V540H407.3V564H418.15V575.43L394.45 575.42Z" fill="#1D1D1B"/>
<path d="M477.4 571L476.4 575.41H462.83L475.11 540H489.36L502 575.43H488.34L487.17 571H477.4ZM482.6 551.82H482.12C482.079 553.171 481.885 554.513 481.54 555.82L479.79 562.63H485L483.34 555.82C483.04 554.51 482.81 553.18 482.64 551.82H482.6Z" fill="#1D1D1B"/>
<path d="M549.52 575.42V540H565.52C569.24 540 573.12 540.43 576.32 543.67C577.44 544.817 578.313 546.182 578.884 547.68C579.455 549.179 579.712 550.778 579.64 552.38C579.751 554.658 579.041 556.901 577.64 558.7C576.385 560.177 574.657 561.173 572.75 561.52V561.84C573.5 562.227 574.14 562.798 574.61 563.5L582.61 575.5H567.85L562.75 565.14C562.551 564.788 562.39 564.416 562.27 564.03L562.06 564.13V575.5L549.52 575.42ZM562.06 555.75H563.54C564.516 555.798 565.477 555.505 566.26 554.92C566.557 554.644 566.791 554.307 566.946 553.933C567.101 553.558 567.174 553.155 567.16 552.75C567.193 551.98 566.948 551.224 566.47 550.62C566.205 550.3 565.872 550.044 565.494 549.871C565.117 549.698 564.705 549.612 564.29 549.62H562.06V555.75Z" fill="#1D1D1B"/>
</g>
<defs>
<clipPath id="clip0_156_4273">
<rect width="652.42" height="575.44" fill="white"/>
</clipPath>
</defs>
</svg>
